<svg fill="none" height="125" viewBox="0 0 125 125" width="125" xmlns="http://www.w3.org/2000/svg" xmlns:xlink="http://www.w3.org/1999/xlink"><mask id="a" height="75" maskUnits="userSpaceOnUse" width="85" x="20" y="25"><path clip-rule="evenodd" d="m68.06 99.0227c19.8705 0 35.979-16.3798 35.979-36.5853 0-20.2056-16.1085-36.5854-35.979-36.5854-14.4566 0-26.9218 8.6701-32.6412 21.1757-2.2473-3.4796-6.6743-8.9904-8.5095-8.1422-2.4735 1.1433-6.746 7.0884-5.8465 24.6951.8553 16.7421 12.6901 23.1466 20.6172 23.7352 6.5707 7.2008 15.9578 11.7069 26.38 11.7069z" fill="#c4c4c4" fill-rule="evenodd"/></mask><path d="m0 0h125v125h-125z" fill="#e5e5e5"/><path d="m0 0h125v125h-125z" fill="#fff"/><g mask="url(#a)"><path d="m100.753 99.4779h-76.4435c-.0061 0-.0092 0-.0154 0-.171-.0462-.342-.0924-.5129-.1386-.3121-.0844-.6212-.1799-.9303-.2744-1.1963-.3668-2.3776-.7984-3.5416-1.2597-1.2351-.4895-2.4599-1.0044-3.6689-1.557-1.1698-.5346-2.2978-1.1483-3.4157-1.7859-1.0779-.6152-2.1276-1.2852-3.15242-1.9875-1.10092-.7543-2.18748-1.5262-3.25378-2.3305-.97641-.7363-1.94817-1.4901-2.87138-2.2949-.99536-.8679-1.995776-1.7359-2.9078646-2.6957-.9070764-.9545-1.7760454-1.9445-2.6205254-2.9563-.82507-.989-1.56984-2.0454-2.25817-3.1364-.67111-1.0633-1.29513-2.1648-1.79756-3.3221-.25857-.5952-.52524-1.1983-.71877-1.8197-.18982-.6094-.37077-1.2219-.53746-1.8384-.335-1.2389-.65059-2.4763-.86875-3.7431-.22225-1.2906-.3477-2.5864-.45467-3.8911-.10462-1.276-.09846-2.5598-.01472-3.8367.08233-1.2555.20162-2.5176.41509-3.7576.22219-1.2907.51632-2.5542.8579-3.8171.33464-1.2374.69564-2.4586 1.20632-3.6344.52493-1.2087 1.1513-2.3511 1.83958-3.4709.6792-1.1049 1.44119-2.1526 2.25446-3.1585.7856-.9718 1.61855-1.9146 2.477958-2.8194.920024-.9686 1.905202-1.8613 2.910162-2.7371.96257-.839 1.96597-1.6278 2.97908-2.4022 1.01634-.777 2.05868-1.5163 3.11126-2.2414 1.08139-.7448 2.18866-1.4468 3.32006-2.1102 1.1127-.6523 2.2534-1.2441 3.4171-1.796 1.1475-.5441 2.3255-1.0307 3.5051-1.498 1.1852-.4694 2.3823-.912 3.5964-1.2985.3163-.1007.6352-.1931.954-.2848.1421-.0409.2847-.0798.4274-.1184.0786-.0213.1812-.0707.263-.0707h76.4735c-.009 0-.018 0-.027 0 1.218.3294 2.421.708 3.605 1.1479 1.205.4482 2.405.9167 3.586 1.429 1.215.5275 2.414 1.0842 3.584 1.7113 1.101.5906 2.189 1.222 3.235 1.9088 1.1.7222 2.187 1.4636 3.255 2.2338 1.02.7341 2.025 1.4963 2.997 2.2929 1.006.8236 2.006 1.6622 2.947 2.563.929.891 1.811 1.8261 2.656 2.801.851.9819 1.681 1.9785 2.428 3.0462.726 1.0375 1.409 2.1239 1.991 3.252.603 1.1676 1.124 2.3718 1.516 3.6296.189.6082.35 1.2261.519 1.8406.168.6121.332 1.2261.464 1.8475.27 1.2677.481 2.5457.609 3.8366.128 1.2951.212 2.5889.201 3.8909-.01 1.2509-.119 2.5135-.272 3.7543-.158 1.2878-.378 2.5667-.685 3.8269-.155.634-.326 1.2632-.501 1.8915-.172.616-.339 1.2371-.556 1.8384-.434 1.2018-.951 2.3739-1.579 3.4844-.634 1.1207-1.321 2.2132-2.083 3.2473-.787 1.067-1.649 2.0688-2.524 3.061-.839.9502-1.723 1.8633-2.664 2.7089-.981.8813-1.982 1.7333-3.013 2.554-.985.7835-1.994 1.5374-3.02 2.2641-1.076.7629-2.169 1.4965-3.28 2.2063-.526.3355-1.069.645-1.61.9539-.554.3164-1.11.6408-1.681.9232-1.185.5871-2.384 1.1355-3.605 1.6419-1.18.4895-2.366.9556-3.569 1.3835-.972.3461-1.956.646-2.951.9146" fill="#296bb8"/><g fill="#69b253"><path d="m43.9992 67.0105c.4699 4.778-7.3457 14.0244-10.1191 19.6647-.7495 0-2.4285-.183-3.1481-.9147-.8995-.9146 3.8227-11.4329-1.1243-15.5488-4.9471-4.1158-2.4736-10.5183 0-13.0335 2.4735-2.5152 13.7169 2.9725 14.3915 9.8323z"/><path d="m26.4595 58.5501c-.6746-1.8292-2.9233-8.9176-6.9709-7.0884-4.0476 1.8293 6.9709 10.7469 6.9709 7.0884z"/><path d="m26.4595 50.3185c-1.5741-3.4299-5.172-3.2013-6.5212-3.6586.2999-2.3628 1.1693-7.5914 2.2487-9.6036 1.3492-2.5153 9.6693-2.058 11.6931 3.2012 2.0239 5.2591-4.7222 6.4024-5.6217 7.7744-.8994 1.3719-.2248 5.7164-1.7989 2.2866z"/><path d="m90.097 93.7636c-16.5502-5.8537-32.0811 0-37.7777 3.6585 0 2.5153-.6746.686 4.2725 3.2009 4.947 2.516 54.1932.458 33.5052-6.8594z"/><path d="m70.3087 33.6264c1.619 1.0975 10.5688-3.2012 14.8412-5.4878 3.0732.6097 9.7143 2.0579 11.6932 2.9725 1.9788.9147 6.8209 13.4909 8.9949 19.6647-1.424.686-4.453 2.2866-5.172 3.2012-.8997 1.1433 1.349 3.2012 0 4.5731-1.3494 1.372-5.6219-6.4024-7.4208-6.4024-1.799 0-3.1482 6.4024-4.2725 6.4024s-1.5741-5.9451-2.6984-6.4024c-1.1244-.4573-6.2963-4.1158-8.545-4.1158s1.1243 2.2866 3.8228 4.1158c2.6984 1.8293-2.2487 2.9726-3.8228 2.9726s-6.2963-7.0884-6.2963-4.8018c0 2.2865 9.2196 6.4024 7.8704 8.2316-1.3492 1.8293-5.172 5.7165-4.0476 8.4604 1.1243 2.7439-.2249 1.6006-2.2487 4.5732s-2.6984 6.6311-6.746 6.4024c-4.0477-.2286-3.3731-8.9176-2.6985-12.3475s-1.574-6.1738-3.8227-5.7165-5.6217-.2286-7.4206-3.2012c-1.799-2.9726 2.4735-8.689 3.373-10.061.8995-1.3719 0-1.1433.8995-2.9725.8994-1.8293.4497-3.4299-.8995-5.7165s1.7989-2.0579 2.6984-.9146 3.8227 1.1433 6.2963.9146c2.4735-.2287 2.2487-2.0579 1.5741-2.9726-.6746-.9146 1.1243-1.3719.6746-2.0579-.4498-.686-1.799 1.372-1.799 2.5153 0 1.1432-1.7989 1.1432-2.2487.4573-.4497-.686-1.7989 0-2.2486-1.6006-.4498-1.6007 2.4735-.686 4.0476-2.5153s6.746-.686 6.746 0-3.1481.4573-1.1243 1.8293z"/><path d="m97.7425 58.5501c.4498 1.372 2.0238 4.3446 2.4735 3.6586.45-.686-2.0237-4.3446-2.4735-3.6586z"/><path d="m96.3933 60.6081c0 1.6006 2.6984 6.8597 3.8227 5.9451 1.124-.9146-3.1481-8.003-3.8227-5.9451z"/><path d="m101.565 62.2087c-.674 1.6006 1.349 2.2866 2.699 2.7439 0-1.0671-.09-3.4756-.45-4.5732-.45-1.3719-1.574.2287-2.249 1.8293z"/><path d="m79.3034 68.8398c.6746 1.1433-1.5741 4.8018-2.9233 5.7165-1.3492 0-.4497-4.3446.4497-4.3446.8995 0 1.799-2.5152 2.4736-1.3719z"/><path d="m65.1367 28.1386c-1.7989.9146-2.2487-.686-3.5979-1.372 1.0494-.3811 3.5979-1.0975 5.3969-.9146 2.2486.2287 0 1.3719-1.799 2.2866z"/><path d="m52.9939 31.7971c-.6746 1.6006-2.9233.686-4.7223 1.1433.8995-.9146 3.2381-2.9268 5.3969-3.6585 2.6984-.9147 0 .9146-.6746 2.5152z"/><path d="m55.2425 33.3977c.4498.686-.6746.686-1.7989.686-.8995.0145-.4497-.686.4497-1.3719.8995-.686.8995 0 1.3492.6859z"/><path d="m30.732 54.2057c-1.1244.4573-2.0238-.4574-3.373-1.1433-.4498-.3049-1.2143-.9604-.6746-1.1433.6746-.2287 1.7989 1.1433 4.0476 1.1433 2.2486 0 1.1243.6859 0 1.1433z"/><path d="m34.7796 56.2636c-.2249 1.1433-.8995-.4573-1.3492-2.0579 0-.4574.2249-.2287.8995-.2287s.6746 1.1433.4497 2.2866z"/></g></g><path clip-rule="evenodd" d="m43.3168 37.277c13.6994-13.9303 35.9104-13.9303 49.6097 0 13.6995 13.9303 13.6995 36.5157 0 50.446-13.689 13.92-35.877 13.93-49.5788.0313-1.1964-1.4994-1.3263-4.3658.0494-6.9733 1.3408-2.5413 4.0586-4.6773 8.2916-4.5929 1.1474.0229 2.5806.5437 4.4215 1.3531.4565.2007.9348.4175 1.4331.6434l.0003.0001c1.4474.6562 3.0623 1.3883 4.7929 2.0202 4.7027 1.717 10.4549 2.7757 17.1403.0327 6.3643-2.6114 8.7993-7.7511 9.7427-10.8688l-1.7194-.5379c-.8556 2.8274-3.0236 7.3827-8.6965 9.7103-5.8232 2.3893-10.8656 1.6572-15.1788.1826 1.6822-2.4548 3.1188-5.572 4.0925-9.5359 1.9009-7.7389 1.4853-15.0506.267-20.5857-.6091-2.7671-1.423-5.1094-2.2626-6.8535-.4193-.8709-.8533-1.61-1.2831-2.1831-.413-.5506-.8866-1.0362-1.4105-1.2786-1.6126-.746-3.1958.074-4.466 1.1554-1.3068 1.1126-2.6049 2.7663-3.8096 4.4017-.3684.5-.7276.9977-1.0783 1.4835-.8247 1.1424-1.602 2.2193-2.3392 3.1073-.5216.6284-.9875 1.117-1.3959 1.4423-.4283.3411-.6774.4085-.7818.4085-1.2847 0-2.0024.0082-2.603.0165l-.1982.0027c-.5114.0072-.9659.0135-1.6823.0135-.7325 0-1.2211.0029-1.7623.0062l-.2084.0012c-.6291.0037-1.3752.0074-2.6648.0074-.1097 0-.3636-.0698-.7959-.4123-.4128-.327-.8832-.8179-1.4097-1.4488-.4052-.4855-.8225-1.0273-1.2529-1.6053 1.6603-3.4633 3.9056-6.7107 6.737-9.5898zm22.6551 31.4677c-.9801 3.9904-2.4381 7.0185-4.1008 9.3287-1.2518-.4977-2.4257-1.0298-3.5442-1.5368h-.0001c-.5118-.232-1.0119-.4587-1.5026-.6744-1.8062-.7942-3.5492-1.4721-5.1002-1.503-4.9417-.0986-8.2681 2.4409-9.9121 5.557-1.0494 1.9891-1.4391 4.2878-1.0626 6.2704-.4809-.0876-1.0488-.1918-1.6941-.3375-1.5228-.3439-3.4487-.9133-5.4574-1.991-3.9841-2.1376-8.3957-6.3265-10.5371-14.9985-1.8396-7.4498-1.437-14.4962-.2592-19.8187.589-2.6617 1.3676-4.873 2.1424-6.4737.3879-.8015.7665-1.4326 1.1082-1.8858.3584-.4755.6153-.6729.7346-.7278.612-.2817 1.4265-.0978 2.602.8977 1.1394.9649 2.3382 2.4656 3.5579 4.1125.3437.4641.69.9412 1.0352 1.417.8497 1.1708 1.6935 2.3334 2.4793 3.275.5564.6666 1.1196 1.2676 1.6758 1.7082.5366.425 1.187.7984 1.9014.7984 1.2937 0 2.0434-.0037 2.6751-.0073l.2088-.0013c.5409-.0032 1.0247-.0061 1.7516-.0061.7292 0 1.1948-.0065 1.707-.0137l.1977-.0027c.5939-.0082 1.3034-.0163 2.5788-.0163.7121 0 1.3591-.374 1.8909-.7976.5517-.4393 1.1101-1.0384 1.6614-1.7025.7788-.9381 1.615-2.0964 2.457-3.2627.3421-.4739.6851-.9491 1.0257-1.4114 1.2086-1.6407 2.3961-3.1351 3.5246-4.0958 1.1651-.9919 1.9668-1.1703 2.5662-.893.1161.0537.3698.2492.725.7229.3384.4512.7135 1.0797 1.0978 1.8781.7677 1.5944 1.5392 3.7972 2.1229 6.4487 1.167 5.3021 1.566 12.3217-.2569 19.743zm-30.593-23.5202c1.6991-3.3278 3.9214-6.4503 6.6659-9.241 14.4019-14.6447 37.7519-14.6447 52.1538 0 14.4014 14.6447 14.4014 38.3883 0 53.033-14.4019 14.6445-37.7519 14.6445-52.1538 0l-.0292-.0297-.0264-.0322c-.1934-.2365-.3658-.4895-.5176-.7564-.0326-.0096-.0837-.0235-.1588-.0408-.158-.0365-.3632-.0756-.6265-.1239l-.0879-.0161-.1139-.0207c-.4906-.0892-1.1127-.2023-1.8193-.3619-1.6194-.3657-3.7108-.9806-5.9069-2.1589-4.4257-2.3744-9.1738-6.9838-11.4424-16.1708-1.9184-7.7691-1.4991-15.1091-.2695-20.6658.6147-2.7778 1.4361-5.1292 2.2834-6.8799.4231-.8742.8611-1.6159 1.2946-2.191.4168-.5528.8939-1.039 1.4205-1.2814 1.6203-.7456 3.2127.0728 4.495 1.1586 1.3182 1.1163 2.6279 2.776 3.8437 4.4178.3393.4581.6709.9142.9953 1.3611zm9.3565 30.2776c1.4903 0 2.6985-.7166 2.6985-1.6006s-1.2082-1.6006-2.6985-1.6006-2.6984.7166-2.6984 1.6006 1.2081 1.6006 2.6984 1.6006zm-12.2075-7.891c.0002-.0005.0004-.0009-.8348-.3406-.8351-.3397-.8349-.3402-.8347-.3407l.0004-.001.0008-.0022.002-.005.0052-.0125.0067-.016.0081-.019c.012-.0275.0283-.0633.0491-.1062.0415-.0857.1017-.2006.183-.3348.1622-.2674.4127-.6181.7742-.9682.7366-.7133 1.908-1.3956 3.628-1.3956s2.8913.6823 3.6279 1.3956c.3615.3501.612.7008.7742.9682.0814.1342.1415.2491.1831.3348.0208.0429.037.0787.049.1062.006.0138.0109.0255.0149.035l.0051.0125.002.005.0009.0022.0004.001c.0002.0005.0004.001-.8348.3407-.8351.3397-.8349.3401-.8348.3406l.0004.0008.0006.0016.001.0025.0011.0028-.0014-.0033c-.0026-.006-.0085-.0193-.018-.0389-.0191-.0394-.0521-.1031-.1007-.1833-.0978-.1613-.2549-.3823-.4837-.6038-.4439-.43-1.184-.891-2.3872-.891-1.2033 0-1.9433.461-2.3873.891-.2288.2215-.3858.4425-.4837.6038-.0486.0802-.0816.1439-.1006.1833-.0095.0196-.0155.0329-.0181.0389l-.0014.0033.0011-.0028.001-.0025.0007-.0016zm17.6044-.3406c.8351.3397.8349.3401.8347.3406l-.0003.0008-.0006.0016-.001.0025-.0012.0028v.0001c.0001-.0003.0006-.0015.0015-.0034.0013-.0032.0036-.0084.0069-.0154.0029-.0064.0066-.0142.0111-.0235.0191-.0394.0521-.1031.1007-.1833.0978-.1613.2549-.3823.4836-.6038.444-.43 1.184-.891 2.3873-.891s1.9433.461 2.3873.891c.2287.2215.3858.4425.4836.6038.0487.0802.0816.1439.1007.1833.0095.0196.0154.0329.0181.0389l.0014.0033-.0011-.0028-.0011-.0025-.0006-.0016-.0003-.0008c-.0002-.0005-.0004-.0009.8348-.3406.8351-.3397.8349-.3402.8347-.3407l-.0004-.001-.0008-.0022-.0021-.005-.0051-.0125c-.0039-.0095-.0089-.0212-.0149-.035-.012-.0275-.0282-.0633-.049-.1062-.0415-.0857-.1017-.2006-.1831-.3348-.1621-.2674-.4126-.6181-.7742-.9682-.7365-.7133-1.9079-1.3956-3.6279-1.3956s-2.8914.6823-3.6279 1.3956c-.3615.3501-.6121.7008-.7742.9682-.0814.1342-.1415.2491-.1831.3348-.0208.0429-.037.0787-.049.1062-.006.0138-.0109.0255-.0149.035l-.0051.0125-.002.005-.0009.0022-.0004.001c-.0002.0005-.0004.001.8348.3407z" fill="#fff" fill-rule="evenodd"/></svg>